<svg width="160" height="161" viewBox="0 0 160 161" fill="none" xmlns="http://www.w3.org/2000/svg">
<rect y="0.485596" width="160" height="160" rx="80" fill="#282B2E"/>
<g clip-path="url(#clip0_1_814)">
<path d="M80.0002 85.9123C91.9663 85.9123 101.667 76.8645 101.667 65.7036C101.667 54.5426 91.9663 45.4949 80.0002 45.4949C68.034 45.4949 58.3335 54.5426 58.3335 65.7036C58.3335 76.8645 68.034 85.9123 80.0002 85.9123Z" fill="#52535B"/>
<path fill-rule="evenodd" clip-rule="evenodd" d="M80.0001 47.227C68.8489 47.227 60.0477 55.6272 60.0477 65.7036C60.0477 75.7799 68.8489 84.1801 80.0001 84.1801C91.1513 84.1801 99.9525 75.7799 99.9525 65.7036C99.9525 55.6272 91.1513 47.227 80.0001 47.227ZM56.6191 65.7036C56.6191 53.458 67.2189 43.7627 80.0001 43.7627C92.7812 43.7627 103.381 53.458 103.381 65.7036C103.381 77.9491 92.7812 87.6444 80.0001 87.6444C67.2189 87.6444 56.6191 77.9491 56.6191 65.7036Z" fill="#282B2E"/>
<path d="M96.4287 60.6514H63.5716C60.6787 60.6514 58.3335 63.021 58.3335 65.9441V99.1441C58.3335 102.067 60.6787 104.437 63.5716 104.437H96.4287C99.3217 104.437 101.667 102.067 101.667 99.1441V65.9441C101.667 63.021 99.3217 60.6514 96.4287 60.6514Z" fill="#52535B"/>
<path fill-rule="evenodd" clip-rule="evenodd" d="M63.5715 62.3835C61.6254 62.3835 60.0477 63.9777 60.0477 65.9441V99.1441C60.0477 101.111 61.6254 102.705 63.5715 102.705H96.4287C98.3748 102.705 99.9525 101.111 99.9525 99.1441V65.9441C99.9525 63.9777 98.3748 62.3835 96.4287 62.3835H63.5715ZM56.6191 65.9441C56.6191 62.0644 59.7318 58.9192 63.5715 58.9192H96.4287C100.268 58.9192 103.381 62.0644 103.381 65.9441V99.1441C103.381 103.024 100.268 106.169 96.4287 106.169H63.5715C59.7318 106.169 56.6191 103.024 56.6191 99.1441V65.9441Z" fill="#282B2E"/>
<path d="M65.2009 42.2609C64.7865 41.5056 65.0566 40.5538 65.8041 40.1351C66.5517 39.7164 67.4936 39.9893 67.908 40.7447L76.3345 56.105C76.7488 56.8604 76.4788 57.8121 75.7312 58.2308C74.9836 58.6495 74.0417 58.3766 73.6273 57.6213L65.2009 42.2609Z" fill="#52535B"/>
<path fill-rule="evenodd" clip-rule="evenodd" d="M66.2195 40.8926C66.5531 40.7058 66.9733 40.8276 67.1582 41.1646L75.5847 56.5249C75.7695 56.8619 75.649 57.2866 75.3155 57.4734C74.982 57.6602 74.5617 57.5384 74.3768 57.2014L65.9504 41.841C65.7655 41.504 65.886 41.0794 66.2195 40.8926ZM68.6576 40.3248C68.0137 39.1511 66.55 38.727 65.3884 39.3776C64.2269 40.0282 63.8072 41.5071 64.451 42.6808L72.8775 58.0412C73.5214 59.2149 74.985 59.639 76.1466 58.9884C77.3082 58.3378 77.7279 56.8589 77.084 55.6851L68.6576 40.3248Z" fill="#282B2E"/>
<path d="M102.619 71.4775C102.619 68.2887 105.177 65.7036 108.333 65.7036C111.489 65.7036 114.048 68.2887 114.048 71.4775V91.9268C114.048 95.1156 111.489 97.7007 108.333 97.7007C105.177 97.7007 102.619 95.1156 102.619 91.9268V71.4775Z" fill="#52535B"/>
<path fill-rule="evenodd" clip-rule="evenodd" d="M108.333 66.5697C111.016 66.5697 113.19 68.767 113.19 71.4775V91.9268C113.19 94.6373 111.016 96.8346 108.333 96.8346C105.651 96.8346 103.476 94.6373 103.476 91.9268V71.4775C103.476 68.767 105.651 66.5697 108.333 66.5697ZM114.905 71.4775C114.905 67.8104 111.963 64.8375 108.333 64.8375C104.704 64.8375 101.762 67.8104 101.762 71.4775V91.9268C101.762 95.594 104.704 98.5668 108.333 98.5668C111.963 98.5668 114.905 95.594 114.905 91.9268V71.4775Z" fill="#282B2E"/>
<path d="M82.381 94.8137C82.381 91.6249 84.9394 89.0398 88.0953 89.0398C91.2512 89.0398 93.8096 91.6249 93.8096 94.8137V115.263C93.8096 118.452 91.2512 121.037 88.0953 121.037C84.9394 121.037 82.381 118.452 82.381 115.263V94.8137Z" fill="#52535B"/>
<path fill-rule="evenodd" clip-rule="evenodd" d="M88.0953 89.9059C90.7778 89.9059 92.9525 92.1032 92.9525 94.8137V115.263C92.9525 117.973 90.7778 120.171 88.0953 120.171C85.4128 120.171 83.2382 117.973 83.2382 115.263V94.8137C83.2382 92.1032 85.4128 89.9059 88.0953 89.9059ZM94.6667 94.8137C94.6667 91.1465 91.7246 88.1737 88.0953 88.1737C84.466 88.1737 81.5239 91.1465 81.5239 94.8137V115.263C81.5239 118.93 84.466 121.903 88.0953 121.903C91.7246 121.903 94.6667 118.93 94.6667 115.263V94.8137Z" fill="#282B2E"/>
<path d="M94.7994 42.2609C95.2138 41.5056 94.9437 40.5538 94.1961 40.1351C93.4485 39.7164 92.5066 39.9893 92.0922 40.7447L83.6658 56.105C83.2514 56.8604 83.5215 57.8121 84.2691 58.2308C85.0166 58.6495 85.9586 58.3766 86.3729 57.6213L94.7994 42.2609Z" fill="#52535B"/>
<path fill-rule="evenodd" clip-rule="evenodd" d="M93.7805 40.8926C93.4469 40.7058 93.0267 40.8276 92.8418 41.1646L84.4153 56.5249C84.2305 56.8619 84.351 57.2866 84.6845 57.4734C85.018 57.6602 85.4383 57.5384 85.6232 57.2014L94.0496 41.841C94.2345 41.504 94.114 41.0794 93.7805 40.8926ZM91.3424 40.3248C91.9863 39.1511 93.45 38.727 94.6116 39.3776C95.7731 40.0282 96.1928 41.5071 95.549 42.6808L87.1225 58.0412C86.4786 59.2149 85.015 59.639 83.8534 58.9884C82.6918 58.3378 82.2721 56.8589 82.916 55.6851L91.3424 40.3248Z" fill="#282B2E"/>
<path d="M57.3807 71.4775C57.3807 68.2887 54.8223 65.7036 51.6664 65.7036C48.5105 65.7036 45.9521 68.2887 45.9521 71.4775V91.9268C45.9521 95.1156 48.5105 97.7007 51.6664 97.7007C54.8223 97.7007 57.3807 95.1156 57.3807 91.9268V71.4775Z" fill="#52535B"/>
<path fill-rule="evenodd" clip-rule="evenodd" d="M51.6666 66.5697C48.9841 66.5697 46.8095 68.767 46.8095 71.4775V91.9268C46.8095 94.6373 48.9841 96.8346 51.6666 96.8346C54.3492 96.8346 56.5238 94.6373 56.5238 91.9268V71.4775C56.5238 68.767 54.3492 66.5697 51.6666 66.5697ZM45.0952 71.4775C45.0952 67.8104 48.0373 64.8375 51.6666 64.8375C55.2959 64.8375 58.2381 67.8104 58.2381 71.4775V91.9268C58.2381 95.594 55.2959 98.5668 51.6666 98.5668C48.0373 98.5668 45.0952 95.594 45.0952 91.9268V71.4775Z" fill="#282B2E"/>
<path d="M77.619 94.8137C77.619 91.6249 75.0606 89.0398 71.9047 89.0398C68.7488 89.0398 66.1904 91.6249 66.1904 94.8137V115.263C66.1904 118.452 68.7488 121.037 71.9047 121.037C75.0606 121.037 77.619 118.452 77.619 115.263V94.8137Z" fill="#52535B"/>
<path fill-rule="evenodd" clip-rule="evenodd" d="M71.9049 89.9059C69.2224 89.9059 67.0478 92.1032 67.0478 94.8137V115.263C67.0478 117.973 69.2224 120.171 71.9049 120.171C74.5875 120.171 76.7621 117.973 76.7621 115.263V94.8137C76.7621 92.1032 74.5875 89.9059 71.9049 89.9059ZM65.3335 94.8137C65.3335 91.1465 68.2756 88.1737 71.9049 88.1737C75.5342 88.1737 78.4764 91.1465 78.4764 94.8137V115.263C78.4764 118.93 75.5342 121.903 71.9049 121.903C68.2756 121.903 65.3335 118.93 65.3335 115.263V94.8137Z" fill="#282B2E"/>
<path d="M80.0002 85.9123C91.9663 85.9123 101.667 76.8645 101.667 65.7036C101.667 54.5426 91.9663 45.4949 80.0002 45.4949C68.034 45.4949 58.3335 54.5426 58.3335 65.7036C58.3335 76.8645 68.034 85.9123 80.0002 85.9123Z" fill="#52535B"/>
<path d="M96.4287 60.6514H63.5716C60.6787 60.6514 58.3335 63.021 58.3335 65.9441V99.1441C58.3335 102.067 60.6787 104.437 63.5716 104.437H96.4287C99.3217 104.437 101.667 102.067 101.667 99.1441V65.9441C101.667 63.021 99.3217 60.6514 96.4287 60.6514Z" fill="#52535B"/>
<path fill-rule="evenodd" clip-rule="evenodd" d="M102.619 67.4117H57.3809V65.6796H102.619V67.4117Z" fill="#282B2E"/>
<path d="M69.9997 56.8022C70.5257 56.8022 70.9521 56.3714 70.9521 55.8399C70.9521 55.3084 70.5257 54.8776 69.9997 54.8776C69.4738 54.8776 69.0474 55.3084 69.0474 55.8399C69.0474 56.3714 69.4738 56.8022 69.9997 56.8022Z" fill="#282B2E"/>
<path fill-rule="evenodd" clip-rule="evenodd" d="M70 55.7436C69.9474 55.7436 69.9047 55.7867 69.9047 55.8399C69.9047 55.893 69.9474 55.9361 70 55.9361C70.0526 55.9361 70.0952 55.893 70.0952 55.8399C70.0952 55.7867 70.0526 55.7436 70 55.7436ZM68.1904 55.8399C68.1904 54.8301 69.0006 54.0115 70 54.0115C70.9993 54.0115 71.8095 54.8301 71.8095 55.8399C71.8095 56.8497 70.9993 57.6683 70 57.6683C69.0006 57.6683 68.1904 56.8497 68.1904 55.8399Z" fill="#282B2E"/>
<path d="M89.9997 56.8022C90.5257 56.8022 90.9521 56.3714 90.9521 55.8399C90.9521 55.3084 90.5257 54.8776 89.9997 54.8776C89.4738 54.8776 89.0474 55.3084 89.0474 55.8399C89.0474 56.3714 89.4738 56.8022 89.9997 56.8022Z" fill="#282B2E"/>
<path fill-rule="evenodd" clip-rule="evenodd" d="M90 55.7436C89.9474 55.7436 89.9047 55.7867 89.9047 55.8399C89.9047 55.893 89.9474 55.9361 90 55.9361C90.0526 55.9361 90.0952 55.893 90.0952 55.8399C90.0952 55.7867 90.0526 55.7436 90 55.7436ZM88.1904 55.8399C88.1904 54.8301 89.0006 54.0115 90 54.0115C90.9993 54.0115 91.8095 54.8301 91.8095 55.8399C91.8095 56.8497 90.9993 57.6683 90 57.6683C89.0006 57.6683 88.1904 56.8497 88.1904 55.8399Z" fill="#282B2E"/>
</g>
<defs>
<clipPath id="clip0_1_814">
<rect width="70" height="83" fill="white" transform="translate(45 38.9993)"/>
</clipPath>
</defs>
</svg>
