<svg width="24" height="25" viewBox="0 0 24 25" fill="none" xmlns="http://www.w3.org/2000/svg">
<mask id="mask0_1_273" style="mask-type:alpha" maskUnits="userSpaceOnUse" x="0" y="0" width="24" height="25">
<rect y="0.751221" width="24" height="24" fill="#D9D9D9"/>
</mask>
<g mask="url(#mask0_1_273)">
<path d="M4.98262 22.7512C4.42862 22.7512 3.95968 22.562 3.57581 22.1837C3.19194 21.8053 3 21.343 3 20.797V7.07557H4.64514V20.797C4.64514 20.8801 4.6803 20.9564 4.7506 21.0257C4.8209 21.095 4.89824 21.1296 4.98262 21.1296H15.6129V22.7512H4.98262ZM8.82133 18.9674C8.26731 18.9674 7.79836 18.7783 7.41449 18.3999C7.03063 18.0215 6.83871 17.5593 6.83871 17.0132V4.70547C6.83871 4.1594 7.03063 3.69717 7.41449 3.31879C7.79836 2.94041 8.26731 2.75122 8.82133 2.75122H18.0174C18.5714 2.75122 19.0403 2.94041 19.4242 3.31879C19.8081 3.69717 20 4.1594 20 4.70547V17.0132C20 17.5593 19.8081 18.0215 19.4242 18.3999C19.0403 18.7783 18.5714 18.9674 18.0174 18.9674H8.82133ZM8.82133 17.3459H18.0174C18.1017 17.3459 18.1791 17.3112 18.2494 17.2419C18.3197 17.1726 18.3549 17.0964 18.3549 17.0132V4.70547C18.3549 4.6223 18.3197 4.54607 18.2494 4.47677C18.1791 4.40747 18.1017 4.37282 18.0174 4.37282H8.82133C8.73695 4.37282 8.65961 4.40747 8.58931 4.47677C8.51898 4.54607 8.48382 4.6223 8.48382 4.70547V17.0132C8.48382 17.0964 8.51898 17.1726 8.58931 17.2419C8.65961 17.3112 8.73695 17.3459 8.82133 17.3459Z" fill="#A7A7B0"/>
</g>
</svg>
