<svg width="24" height="25" viewBox="0 0 24 25" fill="none" xmlns="http://www.w3.org/2000/svg">
<path d="M18.9308 5.81191C17.6561 5.19802 16.2892 4.74573 14.8599 4.48668C14.8339 4.48168 14.8079 4.49418 14.7945 4.51917C14.6187 4.84734 14.4239 5.27548 14.2876 5.61199C12.7503 5.37044 11.221 5.37044 9.71527 5.61199C9.57887 5.268 9.37707 4.84734 9.20048 4.51917C9.18707 4.49501 9.16107 4.48252 9.13504 4.48668C7.70659 4.7449 6.33963 5.19719 5.06411 5.81191C5.05307 5.8169 5.04361 5.82524 5.03732 5.83606C2.44449 9.9017 1.73421 13.8674 2.08265 17.7839C2.08423 17.8031 2.09447 17.8214 2.10867 17.8331C3.81934 19.1516 5.47642 19.9521 7.10273 20.4827C7.12876 20.491 7.15634 20.481 7.1729 20.4585C7.55761 19.9071 7.90054 19.3257 8.19456 18.7143C8.21192 18.6785 8.19535 18.636 8.15989 18.6219C7.61594 18.4053 7.098 18.1413 6.59977 17.8414C6.56037 17.8173 6.55721 17.7581 6.59347 17.7298C6.69831 17.6473 6.80318 17.5615 6.9033 17.4749C6.92141 17.4591 6.94665 17.4557 6.96794 17.4657C10.2411 19.0342 13.7846 19.0342 17.0191 17.4657C17.0404 17.4549 17.0657 17.4582 17.0846 17.4741C17.1847 17.5607 17.2895 17.6473 17.3952 17.7298C17.4314 17.7581 17.4291 17.8173 17.3897 17.8414C16.8914 18.1471 16.3735 18.4053 15.8288 18.621C15.7933 18.6352 15.7775 18.6785 15.7949 18.7143C16.0952 19.3249 16.4381 19.9063 16.8157 20.4577C16.8315 20.481 16.8599 20.491 16.8859 20.4827C18.5201 19.9521 20.1772 19.1516 21.8879 17.8331C21.9028 17.8214 21.9123 17.8039 21.9139 17.7848C22.3309 13.2568 21.2154 9.32364 18.9568 5.83689C18.9513 5.82524 18.9419 5.8169 18.9308 5.81191ZM8.68335 15.3992C7.69792 15.3992 6.88594 14.4496 6.88594 13.2835C6.88594 12.1173 7.68217 11.1678 8.68335 11.1678C9.69239 11.1678 10.4965 12.1257 10.4807 13.2835C10.4807 14.4496 9.68451 15.3992 8.68335 15.3992ZM15.329 15.3992C14.3435 15.3992 13.5316 14.4496 13.5316 13.2835C13.5316 12.1173 14.3278 11.1678 15.329 11.1678C16.338 11.1678 17.1421 12.1257 17.1264 13.2835C17.1264 14.4496 16.338 15.3992 15.329 15.3992Z" fill="#E9E9EB"/>
</svg>
