<svg width="24" height="25" viewBox="0 0 24 25" fill="none" xmlns="http://www.w3.org/2000/svg">
<path fill-rule="evenodd" clip-rule="evenodd" d="M11.9967 2.4856C9.62266 2.48687 7.32647 3.35388 5.51871 4.9316C3.71095 6.50932 2.5095 8.69487 2.12919 11.0975C1.74889 13.5 2.21451 15.963 3.44283 18.0459C4.67114 20.1288 6.58204 21.6958 8.83384 22.4668C9.33062 22.5618 9.51774 22.2444 9.51774 21.9744C9.51774 21.7045 9.5078 20.9218 9.50449 20.0661C6.72251 20.6858 6.13465 18.8556 6.13465 18.8556C5.68093 17.6671 5.02517 17.3548 5.02517 17.3548C4.11771 16.7198 5.09307 16.7317 5.09307 16.7317C6.09823 16.8047 6.62647 17.7894 6.62647 17.7894C7.51737 19.3564 8.96631 18.9031 9.53596 18.6383C9.62538 17.9744 9.88536 17.5228 10.1718 17.2665C7.94957 17.0084 5.61469 16.129 5.61469 12.2003C5.60091 11.1814 5.96968 10.1961 6.64469 9.44819C6.54202 9.19013 6.19923 8.14769 6.74238 6.73174C6.74238 6.73174 7.58195 6.4567 9.49291 7.78267C11.132 7.32311 12.8614 7.32311 14.5005 7.78267C16.4098 6.4567 17.2477 6.73174 17.2477 6.73174C17.7925 8.1443 17.4497 9.18673 17.347 9.44819C18.0242 10.1962 18.3937 11.1833 18.3787 12.2037C18.3787 16.1408 16.0388 17.0084 13.8133 17.2614C14.1709 17.5806 14.4905 18.2036 14.4905 19.1612C14.4905 20.533 14.4789 21.6366 14.4789 21.9744C14.4789 22.2478 14.6594 22.5669 15.1662 22.4668C17.4182 21.6957 19.3293 20.1284 20.5576 18.0451C21.7859 15.9619 22.2513 13.4986 21.8705 11.0958C21.4898 8.69298 20.2878 6.5074 18.4794 4.92995C16.671 3.3525 14.3743 2.48606 12 2.4856H11.9967Z" fill="#E9E9EB"/>
</svg>
