<svg width="160" height="161" viewBox="0 0 160 161" fill="none" xmlns="http://www.w3.org/2000/svg">
<rect y="0.485596" width="160" height="160" rx="80" fill="#282B2E"/>
<path d="M110.833 62.5762C110.364 62.9417 102.08 67.6281 102.08 78.0486C102.08 90.1016 112.621 94.3656 112.937 94.4712C112.888 94.7311 111.262 100.311 107.379 105.996C103.916 110.999 100.3 115.994 94.7985 115.994C89.2972 115.994 87.8814 112.786 81.5306 112.786C75.3417 112.786 73.1412 116.1 68.1091 116.1C63.077 116.1 59.5659 111.47 55.5289 105.785C50.8528 99.1088 47.0747 88.7371 47.0747 78.8932C47.0747 63.1041 57.3007 54.7304 67.3648 54.7304C72.7124 54.7304 77.17 58.2553 80.5275 58.2553C83.7231 58.2553 88.7066 54.5192 94.7904 54.5192C97.0961 54.5192 105.38 54.7304 110.833 62.5762ZM91.9022 47.8348C94.4182 44.8378 96.1981 40.6794 96.1981 36.5209C96.1981 35.9443 96.1495 35.3595 96.0444 34.8884C91.9507 35.0427 87.0805 37.6255 84.1438 41.0449C81.8381 43.6764 79.6861 47.8348 79.6861 52.0501C79.6861 52.6837 79.7913 53.3172 79.8398 53.5202C80.0987 53.569 80.5194 53.6258 80.9401 53.6258C84.613 53.6258 89.2325 51.1567 91.9022 47.8348Z" fill="#52535B"/>
</svg>
