<svg width="24" height="25" viewBox="0 0 24 25" fill="none" xmlns="http://www.w3.org/2000/svg">
<path fill-rule="evenodd" clip-rule="evenodd" d="M22 12.4856C22 18.0084 17.5228 22.4856 12 22.4856C6.47715 22.4856 2 18.0084 2 12.4856C2 6.96275 6.47715 2.4856 12 2.4856C17.5228 2.4856 22 6.96275 22 12.4856ZM12.3583 9.86805C11.3857 10.2726 9.44176 11.1099 6.52656 12.38C6.05318 12.5683 5.8052 12.7525 5.78262 12.9325C5.74447 13.2369 6.12558 13.3567 6.64454 13.5199C6.71513 13.5421 6.78828 13.5651 6.86326 13.5895C7.37385 13.7554 8.06067 13.9496 8.41772 13.9573C8.7416 13.9643 9.10309 13.8308 9.50218 13.5567C12.2259 11.7181 13.632 10.7888 13.7202 10.7687C13.7825 10.7546 13.8688 10.7368 13.9273 10.7888C13.9858 10.8408 13.98 10.9392 13.9738 10.9656C13.9361 11.1266 12.4401 12.5174 11.6659 13.2371C11.4246 13.4615 11.2534 13.6206 11.2184 13.657C11.14 13.7384 11.0601 13.8154 10.9833 13.8894C10.509 14.3467 10.1532 14.6896 11.003 15.2496C11.4113 15.5187 11.7381 15.7412 12.0641 15.9632C12.4201 16.2057 12.7752 16.4475 13.2347 16.7487C13.3517 16.8254 13.4635 16.9051 13.5724 16.9827C13.9867 17.2781 14.3589 17.5435 14.8188 17.5011C15.086 17.4766 15.362 17.2253 15.5022 16.4759C15.8335 14.7049 16.4847 10.8677 16.6352 9.28642C16.6483 9.14788 16.6318 8.97058 16.6184 8.89275C16.6051 8.81492 16.5773 8.70403 16.4761 8.62194C16.3563 8.52472 16.1713 8.50422 16.0886 8.50567C15.7125 8.5123 15.1354 8.71295 12.3583 9.86805Z" fill="#E9E9EB"/>
</svg>
