<svg width="24" height="25" viewBox="0 0 24 25" fill="none" xmlns="http://www.w3.org/2000/svg">
<path d="M8.2896 20.4856C15.8368 20.4856 19.9648 14.3294 19.9648 8.99075C19.9648 8.81589 19.9648 8.64183 19.9528 8.46854C20.7559 7.89665 21.4491 7.18853 22 6.37735C21.2512 6.70423 20.4567 6.91849 19.6432 7.01298C20.4998 6.50814 21.141 5.71401 21.4472 4.77844C20.6417 5.24906 19.7605 5.58071 18.8416 5.75906C18.2229 5.11137 17.4047 4.68248 16.5135 4.53877C15.6223 4.39506 14.7078 4.54454 13.9116 4.96407C13.1154 5.38361 12.4819 6.0498 12.109 6.85958C11.7361 7.66935 11.6446 8.57755 11.8488 9.44364C10.2174 9.36307 8.62146 8.94565 7.16455 8.21847C5.70763 7.49129 4.4223 6.47061 3.392 5.22267C2.86727 6.11205 2.70656 7.16489 2.94258 8.16683C3.17861 9.16877 3.79362 10.0445 4.6624 10.6157C4.00936 10.5968 3.37054 10.4234 2.8 10.11V10.1612C2.80026 11.0939 3.12821 11.9979 3.72823 12.7197C4.32824 13.4415 5.16338 13.9368 6.092 14.1214C5.4879 14.2837 4.85406 14.3074 4.2392 14.1908C4.50151 14.9934 5.01202 15.6954 5.69937 16.1984C6.38671 16.7014 7.21652 16.9804 8.0728 16.9963C7.22203 17.6547 6.24776 18.1415 5.20573 18.4289C4.16369 18.7162 3.07435 18.7984 2 18.6709C3.87653 19.8564 6.05994 20.4853 8.2896 20.4824" fill="#E9E9EB"/>
</svg>
