<svg width="382" height="379" viewBox="0 0 382 379" fill="none" xmlns="http://www.w3.org/2000/svg">
<path d="M-0.00439659 141.301C-0.00439659 115.324 21.0534 94.2018 47.0295 94.2018C73.0056 94.2018 94.0635 115.324 94.0635 141.301C94.0635 167.277 73.0057 188.399 47.0295 188.399C21.0534 188.399 -0.00439659 167.277 -0.00439659 141.301Z" fill="#9D9FFF"/>
<path fill-rule="evenodd" clip-rule="evenodd" d="M47.2488 188.399C73.124 188.28 94.0635 167.204 94.0635 141.301C94.0635 115.398 73.124 94.3208 47.2488 94.2023L47.2488 188.399Z" fill="#4A4BFF"/>
<path d="M268.007 203.669C286.375 222.063 286.375 251.884 268.007 270.277C249.639 288.67 219.859 288.67 201.491 270.277C183.123 251.884 183.123 222.063 201.491 203.669C219.859 185.276 249.639 185.276 268.007 203.669Z" fill="#9D9FFF"/>
<path fill-rule="evenodd" clip-rule="evenodd" d="M201.034 204.133C183.124 222.561 183.277 252.038 201.491 270.277C219.705 288.517 249.142 288.669 267.544 270.735L201.034 204.133Z" fill="#4A4BFF"/>
<path d="M140.944 284.072C166.92 284.072 187.978 305.195 187.978 331.171C187.978 357.147 166.92 378.27 140.944 378.27C114.968 378.27 93.9103 357.147 93.9103 331.171C93.9103 305.195 114.968 284.072 140.944 284.072Z" fill="#9D9FFF"/>
<path fill-rule="evenodd" clip-rule="evenodd" d="M93.9147 331.822C94.2632 357.499 115.186 378.27 140.944 378.27C166.703 378.27 187.625 357.499 187.974 331.822L93.9147 331.822Z" fill="#4A4BFF"/>
<path d="M328.554 284.072C354.53 284.072 375.588 305.195 375.588 331.171C375.588 357.147 354.53 378.27 328.554 378.27C302.578 378.27 281.52 357.147 281.52 331.171C281.52 305.195 302.578 284.072 328.554 284.072Z" fill="#FF691D"/>
<path d="M-0.00439659 331.17C-0.00439659 305.194 21.0534 284.071 47.0295 284.071C73.0056 284.071 94.0635 305.194 94.0635 331.17C94.0635 357.146 73.0057 378.269 47.0295 378.269C21.0534 378.269 -0.00439659 357.146 -0.00439659 331.17Z" fill="#17191C"/>
<path fill-rule="evenodd" clip-rule="evenodd" d="M47.6799 378.264C73.3562 377.915 94.0634 356.929 94.0634 331.17C94.0634 305.411 73.3562 284.425 47.6799 284.076L47.6799 378.264Z" fill="#37393F"/>
<path d="M234.749 188.137C208.773 188.137 187.715 167.015 187.715 141.038C187.715 115.062 208.773 93.9396 234.749 93.9396C260.725 93.9396 281.783 115.062 281.783 141.038C281.783 167.015 260.725 188.137 234.749 188.137Z" fill="#17191C"/>
<path fill-rule="evenodd" clip-rule="evenodd" d="M281.778 140.387C281.43 114.71 260.508 93.9397 234.749 93.9397C208.99 93.9397 188.068 114.71 187.719 140.387L281.778 140.387Z" fill="#37393F"/>
<path d="M187.978 141.039C187.978 167.015 166.92 188.137 140.944 188.137C114.968 188.137 93.9102 167.015 93.9102 141.038C93.9102 115.062 114.968 93.9397 140.944 93.9397C166.92 93.9397 187.978 115.062 187.978 141.039Z" fill="#17191C"/>
<path fill-rule="evenodd" clip-rule="evenodd" d="M140.294 93.9441C114.617 94.2932 93.9102 115.28 93.9102 141.038C93.9102 166.797 114.617 187.784 140.294 188.133L140.294 93.9441Z" fill="#37393F"/>
<path d="M375.588 237.5C375.588 263.476 354.53 284.598 328.554 284.598C302.577 284.598 281.52 263.476 281.52 237.5C281.52 211.524 302.577 190.401 328.554 190.401C354.53 190.401 375.588 211.524 375.588 237.5Z" fill="#17191C"/>
<path fill-rule="evenodd" clip-rule="evenodd" d="M327.904 190.405C302.227 190.754 281.52 211.741 281.52 237.5C281.52 263.259 302.227 284.245 327.904 284.594L327.904 190.405Z" fill="#37393F"/>
<path d="M-0.00439659 47.1041C-0.00439659 21.128 21.0534 0.00527099 47.0295 0.00526986C73.0056 0.00526872 94.0635 21.1279 94.0635 47.1041C94.0635 73.0802 73.0057 94.2029 47.0295 94.2029C21.0534 94.2029 -0.00439659 73.0802 -0.00439659 47.1041Z" fill="#282B2E"/>
<path d="M281.783 331.17C281.783 357.146 260.725 378.269 234.749 378.269C208.773 378.269 187.715 357.146 187.715 331.17C187.715 305.194 208.773 284.072 234.749 284.072C260.725 284.072 281.783 305.194 281.783 331.17Z" fill="#282B2E"/>
<path d="M187.978 236.974C187.978 262.95 166.92 284.072 140.944 284.072C114.968 284.072 93.9102 262.95 93.9102 236.974C93.9102 210.997 114.968 189.875 140.944 189.875C166.92 189.875 187.978 210.997 187.978 236.974Z" fill="#282B2E"/>
<path d="M375.588 141.039C375.588 167.015 354.53 188.137 328.554 188.137C302.577 188.137 281.52 167.015 281.52 141.038C281.52 115.062 302.577 93.9397 328.554 93.9397C354.53 93.9397 375.588 115.062 375.588 141.039Z" fill="#282B2E"/>
<path d="M13.7724 201.669C32.1403 183.275 61.9205 183.275 80.2884 201.669C98.6563 220.062 98.6563 249.883 80.2884 268.276C61.9205 286.67 32.1403 286.67 13.7724 268.276C-4.59549 249.883 -4.59549 220.062 13.7724 201.669Z" fill="#FF9C23"/>
<path fill-rule="evenodd" clip-rule="evenodd" d="M14.2354 268.734C32.6374 286.668 62.0741 286.516 80.2884 268.276C98.5028 250.037 98.655 220.559 80.7452 202.132L14.2354 268.734Z" fill="#FF5607"/>
<path d="M268.006 80.5129C249.638 98.9061 219.858 98.9061 201.49 80.5129C183.122 62.1196 183.122 32.2983 201.49 13.9051C219.858 -4.48812 249.638 -4.48812 268.006 13.9051C286.374 32.2983 286.374 62.1196 268.006 80.5129Z" fill="#FF9C23"/>
<path fill-rule="evenodd" clip-rule="evenodd" d="M267.543 13.4478C249.141 -4.48673 219.704 -4.33426 201.49 13.9052C183.276 32.1447 183.123 61.6219 201.033 80.0493L267.543 13.4478Z" fill="#FF5607"/>
<path d="M174.201 80.5129C155.833 98.9061 126.053 98.9061 107.685 80.5129C89.3175 62.1196 89.3175 32.2983 107.685 13.9051C126.053 -4.48812 155.833 -4.48812 174.201 13.9051C192.569 32.2983 192.569 62.1196 174.201 80.5129Z" fill="#52535B"/>
<path d="M361.811 80.5129C343.443 98.9061 313.663 98.9061 295.295 80.5129C276.927 62.1196 276.927 32.2983 295.295 13.9051C313.663 -4.48812 343.443 -4.48812 361.811 13.9051C380.179 32.2983 380.179 62.1196 361.811 80.5129Z" fill="#52535B"/>
</svg>
