<svg width="1436" height="319" viewBox="0 0 1436 319" fill="none" xmlns="http://www.w3.org/2000/svg">
<rect x="1222.97" y="0.727783" width="53.0914" height="53.0914" rx="26.5457" fill="#6162FB"/>
<rect x="54.0488" y="0.727783" width="53.0914" height="53.0914" rx="26.5457" fill="#6162FB"/>
<rect x="0.957031" y="0.727783" width="53.0914" height="53.0914" rx="26.5457" fill="#6162FB"/>
<rect x="107.141" y="0.727783" width="53.0914" height="53.0914" rx="26.5457" fill="#6162FB"/>
<rect x="850.957" y="0.727783" width="53.0914" height="53.0914" rx="26.5457" fill="#6162FB"/>
<rect x="691.156" y="0.727783" width="53.0914" height="53.0914" rx="26.5457" fill="#6162FB"/>
<rect x="583.957" y="0.727783" width="53.0914" height="53.0914" rx="26.5457" fill="#6162FB"/>
<rect x="160.23" y="0.727783" width="53.0914" height="53.0914" rx="26.5457" fill="#6162FB"/>
<rect x="425.688" y="0.727783" width="53.0914" height="53.0914" rx="26.5457" fill="#6162FB"/>
<rect x="531.957" y="0.727783" width="53.0914" height="53.0914" rx="26.5457" fill="#6162FB"/>
<rect x="744.248" y="0.727783" width="53.0914" height="53.0914" rx="26.5457" fill="#6162FB"/>
<rect x="478.781" y="0.727783" width="53.0914" height="53.0914" rx="26.5457" fill="#6162FB"/>
<rect x="797.34" y="0.727783" width="53.0914" height="53.0914" rx="26.5457" fill="#6162FB"/>
<rect x="1063.99" y="0.727783" width="53.0914" height="53.0914" rx="26.5457" fill="#6162FB"/>
<rect x="266.414" y="0.727783" width="53.0914" height="53.0914" rx="26.5457" fill="#6162FB"/>
<rect x="1117.08" y="0.727783" width="53.0914" height="53.0914" rx="26.5457" fill="#6162FB"/>
<rect x="903.957" y="0.727783" width="53.0914" height="53.0914" rx="26.5457" fill="#6162FB"/>
<rect x="319.506" y="0.727783" width="53.0914" height="53.0914" rx="26.5457" fill="#6162FB"/>
<rect x="638.066" y="0.727783" width="53.0914" height="53.0914" rx="26.5457" fill="#6162FB"/>
<rect x="1011.05" y="0.727783" width="53.0914" height="53.0914" rx="26.5457" fill="#6162FB"/>
<rect x="1170.18" y="0.727783" width="53.0914" height="53.0914" rx="26.5457" fill="#6162FB"/>
<rect x="1276.06" y="0.727783" width="53.0914" height="53.0914" rx="26.5457" fill="#6162FB"/>
<rect x="1381.95" y="0.727783" width="53.0914" height="53.0914" rx="26.5457" fill="#6162FB"/>
<rect x="54.0488" y="53.2278" width="53.0914" height="53.0914" rx="26.5457" fill="#6162FB"/>
<rect x="0.957031" y="53.2278" width="53.0914" height="53.0914" rx="26.5457" fill="#6162FB"/>
<rect x="107.141" y="53.2278" width="53.0914" height="53.0914" rx="26.5457" fill="#6162FB"/>
<rect x="372.598" y="53.2278" width="53.0914" height="53.0914" rx="26.5457" fill="#6162FB"/>
<rect x="850.957" y="53.2278" width="53.0914" height="53.0914" rx="26.5457" fill="#6162FB"/>
<rect x="583.957" y="53.2278" width="53.0914" height="53.0914" rx="26.5457" fill="#6162FB"/>
<rect x="160.23" y="53.2278" width="53.0914" height="53.0914" rx="26.5457" fill="#6162FB"/>
<rect x="531.957" y="53.2278" width="53.0914" height="53.0914" rx="26.5457" fill="#6162FB"/>
<rect x="744.248" y="53.2278" width="53.0914" height="53.0914" rx="26.5457" fill="#6162FB"/>
<rect x="213.324" y="53.2278" width="53.0914" height="53.0914" rx="26.5457" fill="#6162FB"/>
<rect x="478.781" y="53.2278" width="53.0914" height="53.0914" rx="26.5457" fill="#6162FB"/>
<rect x="797.34" y="53.2278" width="53.0914" height="53.0914" rx="26.5457" fill="#6162FB"/>
<rect x="1063.99" y="53.2278" width="53.0914" height="53.0914" rx="26.5457" fill="#6162FB"/>
<rect x="266.414" y="53.2278" width="53.0914" height="53.0914" rx="26.5457" fill="#6162FB"/>
<rect x="957.957" y="53.2278" width="53.0914" height="53.0914" rx="26.5457" fill="#6162FB"/>
<rect x="903.957" y="53.2278" width="53.0914" height="53.0914" rx="26.5457" fill="#6162FB"/>
<rect x="319.506" y="53.2278" width="53.0914" height="53.0914" rx="26.5457" fill="#6162FB"/>
<rect x="638.066" y="53.2278" width="53.0914" height="53.0914" rx="26.5457" fill="#6162FB"/>
<rect x="1011.05" y="53.2278" width="53.0914" height="53.0914" rx="26.5457" fill="#6162FB"/>
<rect x="1170.18" y="53.2278" width="53.0914" height="53.0914" rx="26.5457" fill="#6162FB"/>
<rect x="1222.96" y="53.2278" width="53.0914" height="53.0914" rx="26.5457" fill="#6162FB"/>
<rect x="1222.96" y="212.728" width="53.0914" height="53.0914" rx="26.5457" fill="#6162FB"/>
<rect x="1276.06" y="53.2278" width="53.0914" height="53.0914" rx="26.5457" fill="#6162FB"/>
<rect x="1328.79" y="53.2278" width="53.0914" height="53.0914" rx="26.5457" fill="#6162FB"/>
<rect x="1381.95" y="53.2278" width="53.0914" height="53.0914" rx="26.5457" fill="#6162FB"/>
<rect x="106.957" y="159.728" width="54" height="52" rx="26" fill="#6162FB"/>
<rect x="54.0488" y="159.275" width="53.0914" height="53.0914" rx="26.5457" fill="#6162FB"/>
<rect x="0.957031" y="159.275" width="53.0914" height="53.0914" rx="26.5457" fill="#6162FB"/>
<rect x="372.598" y="159.275" width="53.0914" height="53.0914" rx="26.5457" fill="#6162FB"/>
<rect x="478.781" y="159.275" width="53.0914" height="53.0914" rx="26.5457" fill="#6162FB"/>
<rect x="266.414" y="159.275" width="53.0914" height="53.0914" rx="26.5457" fill="#6162FB"/>
<rect x="957.957" y="159.275" width="53.0914" height="53.0914" rx="26.5457" fill="#6162FB"/>
<rect x="319.506" y="159.275" width="53.0914" height="53.0914" rx="26.5457" fill="#6162FB"/>
<rect x="1011.05" y="159.275" width="53.0914" height="53.0914" rx="26.5457" fill="#6162FB"/>
<rect x="1222.96" y="159.275" width="53.0914" height="53.0914" rx="26.5457" fill="#6162FB"/>
<rect x="1327.96" y="159.275" width="53.0914" height="53.0914" rx="26.5457" fill="#6162FB"/>
<rect x="54.0488" y="212.306" width="53.0914" height="53.0914" rx="26.5457" fill="#6162FB"/>
<rect x="0.957031" y="159.626" width="53.2" height="105.7" rx="26.6" fill="#6162FB"/>
<rect x="266.305" y="212.306" width="53.0914" height="53.0914" rx="26.5457" fill="#6162FB"/>
<rect x="1381.95" y="212.306" width="53.0914" height="53.0914" rx="26.5457" fill="#6162FB"/>
<rect x="0.957031" y="265.396" width="53.0914" height="53.0914" rx="26.5457" fill="#6162FB"/>
<rect x="266.258" y="265.396" width="53.0914" height="53.0914" rx="26.5457" fill="#6162FB"/>
<rect x="54.0488" y="106.251" width="53.0914" height="53.0914" rx="26.5457" fill="#6162FB"/>
<rect x="0.957031" y="106.251" width="53.0914" height="53.0914" rx="26.5457" fill="#6162FB"/>
<rect x="106.957" y="53.7278" width="53" height="106" rx="26.5" fill="#6162FB"/>
<rect x="372.598" y="106.251" width="53.0914" height="53.0914" rx="26.5457" fill="#6162FB"/>
<rect x="691.156" y="106.251" width="53.0914" height="53.0914" rx="26.5457" fill="#6162FB"/>
<rect x="425.688" y="106.251" width="53.0914" height="53.0914" rx="26.5457" fill="#6162FB"/>
<rect x="531.957" y="106.251" width="53.0914" height="53.0914" rx="26.5457" fill="#6162FB"/>
<rect x="213.324" y="106.251" width="53.0914" height="53.0914" rx="26.5457" fill="#6162FB"/>
<rect x="159.957" y="106.728" width="53.0914" height="53.0914" rx="26.5457" fill="#6162FB"/>
<rect x="159.957" y="159.728" width="53.0914" height="53.0914" rx="26.5457" fill="#6162FB"/>
<rect x="478.781" y="106.251" width="53.0914" height="53.0914" rx="26.5457" fill="#6162FB"/>
<rect x="797.34" y="106.251" width="53.0914" height="53.0914" rx="26.5457" fill="#6162FB"/>
<rect x="1063.99" y="106.251" width="53.0914" height="53.0914" rx="26.5457" fill="#6162FB"/>
<rect x="266.414" y="106.251" width="53.0914" height="53.0914" rx="26.5457" fill="#6162FB"/>
<rect x="957.957" y="106.251" width="53.0914" height="53.0914" rx="26.5457" fill="#6162FB"/>
<rect x="903.957" y="106.251" width="53.0914" height="53.0914" rx="26.5457" fill="#6162FB"/>
<rect x="319.506" y="106.251" width="53.0914" height="53.0914" rx="26.5457" fill="#6162FB"/>
<rect x="1011.05" y="106.251" width="53.0914" height="53.0914" rx="26.5457" fill="#6162FB"/>
<rect x="1170.18" y="106.251" width="53.0914" height="53.0914" rx="26.5457" fill="#6162FB"/>
<rect x="1222.96" y="106.251" width="53.0914" height="53.0914" rx="26.5457" fill="#6162FB"/>
<rect x="1276.06" y="106.251" width="53.0914" height="53.0914" rx="26.5457" fill="#6162FB"/>
<rect x="1328.79" y="106.251" width="53.0914" height="53.0914" rx="26.5457" fill="#6162FB"/>
<rect x="1381.95" y="106.251" width="53.0914" height="53.0914" rx="26.5457" fill="#6162FB"/>
</svg>
