<svg width="701" height="954" viewBox="0 0 701 954" fill="none" xmlns="http://www.w3.org/2000/svg">
<rect x="252.102" y="-196.413" width="897.793" height="897.793" rx="448.896" fill="#17191C"/>
<rect x="382.047" y="-65.8113" width="637.906" height="636.593" rx="318.296" fill="#282B2E"/>
<rect x="515.928" y="68.0715" width="370.143" height="368.83" rx="184.415" fill="#37393F"/>
<rect x="0.253906" y="-448.26" width="1401.49" height="1401.49" rx="700.746" fill="url(#paint0_radial_1_760)"/>
<path d="M263.144 179.286C277.835 179.286 289.744 191.196 289.744 205.886C289.744 220.577 277.835 232.486 263.144 232.486L77.6441 232.486L77.6441 179.286L263.144 179.286Z" fill="url(#paint1_linear_1_760)"/>
<rect x="289.744" y="179.314" width="53.0914" height="53.0914" rx="26.5457" transform="rotate(90 289.744 179.314)" fill="#6162FB"/>
<path d="M349.412 126.849C363.91 126.849 375.662 138.601 375.662 153.099C375.662 167.596 363.91 179.349 349.412 179.349L138.362 179.349L138.362 126.849L349.412 126.849Z" fill="url(#paint2_linear_1_760)"/>
<rect x="375.836" y="126.525" width="53.0914" height="53.0914" rx="26.5457" transform="rotate(90 375.836 126.525)" fill="#FF9C23"/>
<path d="M384.129 476.263C398.626 476.263 410.379 488.015 410.379 502.513C410.379 517.01 398.626 528.763 384.129 528.763L173.079 528.763L173.079 476.263L384.129 476.263Z" fill="url(#paint3_linear_1_760)"/>
<rect x="410.553" y="475.939" width="53.0914" height="53.0914" rx="26.5457" transform="rotate(90 410.553 475.939)" fill="#FF9C23"/>
<defs>
<radialGradient id="paint0_radial_1_760" cx="0" cy="0" r="1" gradientUnits="userSpaceOnUse" gradientTransform="translate(701 252.486) rotate(90) scale(700.746)">
<stop offset="0.739583" stop-color="#17191C" stop-opacity="0"/>
<stop offset="1" stop-color="#17191C"/>
</radialGradient>
<linearGradient id="paint1_linear_1_760" x1="289.744" y1="205.886" x2="77.6441" y2="205.886" gradientUnits="userSpaceOnUse">
<stop stop-color="#4A4BFF"/>
<stop offset="1" stop-color="#08090B" stop-opacity="0"/>
</linearGradient>
<linearGradient id="paint2_linear_1_760" x1="375.662" y1="153.099" x2="138.362" y2="153.099" gradientUnits="userSpaceOnUse">
<stop stop-color="#FF5607"/>
<stop offset="1" stop-color="#08090B" stop-opacity="0"/>
</linearGradient>
<linearGradient id="paint3_linear_1_760" x1="410.379" y1="502.513" x2="173.079" y2="502.513" gradientUnits="userSpaceOnUse">
<stop stop-color="#FF5607"/>
<stop offset="1" stop-color="#08090B" stop-opacity="0"/>
</linearGradient>
</defs>
</svg>
